<svg xmlns="http://www.w3.org/2000/svg" width="214.74" height="45.219" viewBox="0 0 214.74 45.219"><defs><style>.a{fill:#fff;}</style></defs><g transform="translate(-153 -34)"><g transform="translate(153 34)"><g transform="translate(11.866)"><path class="a" d="M322.774,354.706l1.143-4.27a24.816,24.816,0,0,0-30.358,17.532l4.271,1.143A20.392,20.392,0,0,1,322.774,354.706Z" transform="translate(-293.559 -349.59)"/><path class="a" d="M318.348,359.766l1.144-4.271A17,17,0,0,0,298.7,367.5l4.271,1.144A12.567,12.567,0,0,1,318.348,359.766Z" transform="translate(-291.155 -347.102)"/><path class="a" d="M313.924,364.825l1.143-4.271a9.173,9.173,0,0,0-11.22,6.481l4.271,1.143A4.746,4.746,0,0,1,313.924,364.825Z" transform="translate(-288.752 -344.613)"/></g><g transform="translate(0 21.653)"><path class="a" d="M286.615,381.508l-1.143,4.271a24.818,24.818,0,0,0,30.358-17.533l-4.271-1.144A20.391,20.391,0,0,1,286.615,381.508Z" transform="translate(-285.472 -363.06)"/><path class="a" d="M287.993,374.605l-1.144,4.271a17,17,0,0,0,20.79-12.008l-4.271-1.143A12.569,12.569,0,0,1,287.993,374.605Z" transform="translate(-284.829 -363.703)"/><path class="a" d="M289.37,367.7l-1.143,4.271a9.174,9.174,0,0,0,11.22-6.481l-4.271-1.145A4.747,4.747,0,0,1,289.37,367.7Z" transform="translate(-284.185 -364.347)"/></g><g transform="translate(45.528 10.342)"><g transform="translate(0 0)"><path class="a" d="M319.2,374.807a2.1,2.1,0,0,1,1.455-1.9,7.23,7.23,0,0,0,5.452,2.235c1.862,0,2.877-.644,2.877-1.693,0-1.287-1.321-1.525-3.521-2-2.268-.474-5.79-1.218-5.79-4.943,0-3.216,2.607-5.35,6.874-5.35,3.351,0,5.417.914,6.264,2.2a2.449,2.449,0,0,1,.406,1.354,2.373,2.373,0,0,1-1.525,2,6.558,6.558,0,0,0-4.842-2.235c-1.828,0-2.81.676-2.81,1.725,0,1.186,1.287,1.423,3.521,1.931,2.336.508,6.061,1.253,6.061,4.977,0,3.319-2.641,5.316-7.281,5.316a10.87,10.87,0,0,1-5.689-1.253A2.88,2.88,0,0,1,319.2,374.807Z" transform="translate(-319.204 -354.525)"/><path class="a" d="M332.977,374.125v-7.584h-.847c-1.354,0-1.963-.609-1.963-1.693v-.27c0-1.118.609-1.761,1.929-1.761h.88v-2.1c0-1.557.779-2.3,2.133-2.3h.44c1.253,0,2.1.541,2.1,2.3v2.1h2.877c1.354,0,1.929.575,1.929,1.659v.3c0,1.152-.609,1.761-1.963,1.761h-2.912v7.043c0,1.626.509,2.439,1.83,2.439a2.421,2.421,0,0,0,2.064-1.118,1.876,1.876,0,0,1,1.186,1.862,2.424,2.424,0,0,1-.813,1.83,4.941,4.941,0,0,1-3.555,1.218C334.67,379.814,332.977,377.884,332.977,374.125Z" transform="translate(-314.081 -355.808)"/><path class="a" d="M352.313,363.937a2.47,2.47,0,0,1-1.525,2.506,3.306,3.306,0,0,0-2.167-.813c-2.3,0-3.318,2.032-3.318,5.35v4.943c0,1.727-.88,2.27-2.1,2.27H342.7c-1.287,0-2.167-.509-2.167-2.27V361.906c0-.17.813-.543,1.795-.543a2.639,2.639,0,0,1,2.607,1.8,7.561,7.561,0,0,1,.236,1.15,4.128,4.128,0,0,1,4.1-3.149C351.161,361.161,352.313,362.244,352.313,363.937Z" transform="translate(-309.239 -354.525)"/><path class="a" d="M357.588,361.161a7.866,7.866,0,0,1,8.228,8.262v.3c-.034.813-.271,1.253-1.152,1.253H353.22l.1.541a4.587,4.587,0,0,0,4.739,3.557,4.927,4.927,0,0,0,4.64-2.4c.034-.067,2.336.135,2.336,2.032a3.223,3.223,0,0,1-1.828,2.572,10.112,10.112,0,0,1-5.282,1.253c-5.383,0-8.9-3.351-8.9-8.6A8.4,8.4,0,0,1,357.588,361.161Zm-.034,3.284a4.272,4.272,0,0,0-4.265,3.928h8.126C361.28,365.969,359.823,364.445,357.554,364.445Z" transform="translate(-305.271 -354.525)"/><path class="a" d="M372.544,368.2h.541a2.09,2.09,0,0,0-.034-.474c-.068-1.929-1.253-2.98-3.351-2.98a4.139,4.139,0,0,0-4.063,2.4c-.035.067-3.081.3-3.081-1.9a3.022,3.022,0,0,1,1.015-2.167c1.117-1.15,3.25-1.929,6.433-1.929,5.249,0,7.788,2.4,7.788,6.84v9.752c0,.236-.88.541-1.794.541a2.465,2.465,0,0,1-2.506-1.592,6.774,6.774,0,0,1-.27-1.117,6.6,6.6,0,0,1-5.722,2.844c-3.454,0-5.554-1.9-5.554-4.741C361.946,370,365.535,368.305,372.544,368.2Zm.541,2.4h-.914c-3.758.136-5.756.847-5.756,2.71,0,1.252.982,2.031,2.574,2.031,2.37,0,4.063-1.456,4.1-3.555Z" transform="translate(-299.232 -354.525)"/><path class="a" d="M401.855,367.73v8.193c0,1.727-.88,2.27-2.1,2.27h-.508c-1.287,0-2.167-.509-2.167-2.27v-7.448c0-2.167-.948-3.319-2.877-3.319a3.847,3.847,0,0,0-3.251,2.032v8.735c0,1.727-.88,2.27-2.1,2.27h-.508c-1.253,0-2.167-.509-2.167-2.27v-7.347c0-2.268-.948-3.42-2.844-3.42a3.844,3.844,0,0,0-3.25,2.032v8.735c0,1.727-.88,2.27-2.1,2.27h-.508c-1.287,0-2.167-.509-2.167-2.27V361.906c0-.17.847-.543,1.794-.543,1.186,0,2.471.509,2.844,2.71a5.936,5.936,0,0,1,5.113-2.913,5.227,5.227,0,0,1,5.282,3.386,6.169,6.169,0,0,1,5.552-3.386C400.094,361.161,401.855,363.836,401.855,367.73Z" transform="translate(-292.988 -354.525)"/><path class="a" d="M400.6,378.681a1.74,1.74,0,0,1-1.963,1.626h-.509c-1.252,0-2.166-.509-2.166-2.3V357.179a2.689,2.689,0,0,1,1.828-.541c1.388,0,2.945.745,2.945,3.827v5.518a6.218,6.218,0,0,1,5.316-2.709c4.469,0,7.62,3.353,7.62,8.635,0,5.146-3.115,8.735-7.653,8.735A5.839,5.839,0,0,1,400.7,377.7Zm4.3-11.58a4.291,4.291,0,0,0-4.166,2.709v3.216a3.933,3.933,0,0,0,4.132,3.793c2.538,0,4.232-1.965,4.232-4.876S407.375,367.1,404.9,367.1Z" transform="translate(-283.335 -356.638)"/><path class="a" d="M418.125,361.161a7.865,7.865,0,0,1,8.227,8.262v.3c-.034.813-.27,1.253-1.15,1.253H413.757l.1.541a4.587,4.587,0,0,0,4.741,3.557,4.924,4.924,0,0,0,4.638-2.4c.034-.067,2.337.135,2.337,2.032a3.225,3.225,0,0,1-1.83,2.572,10.1,10.1,0,0,1-5.282,1.253c-5.383,0-8.9-3.351-8.9-8.6A8.4,8.4,0,0,1,418.125,361.161Zm-.034,3.284a4.275,4.275,0,0,0-4.267,3.928h8.126C421.816,365.969,420.36,364.445,418.092,364.445Z" transform="translate(-276.984 -354.525)"/><path class="a" d="M422.482,371.943c0-5.248,3.115-8.669,7.686-8.669a6.192,6.192,0,0,1,5.215,2.506v-8.6a2.651,2.651,0,0,1,1.795-.541c1.423,0,2.98.745,2.98,3.827v17.572c0,1.727-.847,2.27-2.1,2.27h-.474c-1.083,0-1.9-.373-2.064-1.66-.034-.373-.069-.745-.069-1.152a5.99,5.99,0,0,1-5.383,3.149C425.6,380.644,422.482,377.123,422.482,371.943Zm12.934-2.2a4.189,4.189,0,0,0-4.1-2.641c-2.574,0-4.3,1.862-4.3,4.842,0,2.877,1.761,4.876,4.233,4.876a3.972,3.972,0,0,0,4.164-3.962Z" transform="translate(-270.945 -356.638)"/></g></g></g></g></svg>