<svg xmlns="http://www.w3.org/2000/svg" width="59.521" height="48.354" viewBox="0 0 59.521 48.354"><defs><style>.a{fill:#0099cd;}</style></defs><g transform="translate(-46.483 -137.635)"><path class="a" d="M76.272,155.125a5.331,5.331,0,1,0,2.637,4.6A5.318,5.318,0,0,0,76.272,155.125Z" transform="translate(2.707 2.087)"/><path class="a" d="M57.82,160.577a16.916,16.916,0,0,0,5.141,12.151,3.267,3.267,0,0,0,5.067-.709l.1-.17a3.341,3.341,0,0,0-.587-4.07,10.21,10.21,0,0,1,0-14.4,3.341,3.341,0,0,0,.587-4.07l-.1-.17a3.266,3.266,0,0,0-5.067-.709A16.915,16.915,0,0,0,57.82,160.577Z" transform="translate(1.415 1.235)"/><path class="a" d="M82.507,160.577a10.2,10.2,0,0,1-2.973,7.2,3.339,3.339,0,0,0-.587,4.07l.1.17a3.265,3.265,0,0,0,5.066.709,16.926,16.926,0,0,0,0-24.3,3.265,3.265,0,0,0-5.066.709l-.1.17a3.339,3.339,0,0,0,.587,4.07A10.2,10.2,0,0,1,82.507,160.577Z" transform="translate(3.997 1.235)"/><path class="a" d="M101.272,161.806A29.712,29.712,0,0,0,89.864,138.4a3.387,3.387,0,0,0-5,.94h0a3.355,3.355,0,0,0,.79,4.357,22.924,22.924,0,0,1,0,36.219,3.355,3.355,0,0,0-.79,4.357h0a3.389,3.389,0,0,0,5,.941A29.716,29.716,0,0,0,101.272,161.806Z" transform="translate(4.732 0.006)"/><path class="a" d="M53.232,161.811a22.943,22.943,0,0,1,8.945-18.167,3.242,3.242,0,0,0,.763-4.216l-.114-.19a3.281,3.281,0,0,0-4.836-.91,29.717,29.717,0,0,0,0,46.968,3.281,3.281,0,0,0,4.836-.91l.114-.19a3.241,3.241,0,0,0-.764-4.216A22.946,22.946,0,0,1,53.232,161.811Z" transform="translate(0 0)"/></g></svg>