<svg xmlns="http://www.w3.org/2000/svg" width="35.987" height="25.151" viewBox="0 0 35.987 25.151"><defs><style>.a{fill:red;}</style></defs><path class="a" d="M35.243,9.308a4.51,4.51,0,0,0-3.132-3.132c-2.805-.752-14.094-.752-14.094-.752s-11.26-.015-14.094.752A4.51,4.51,0,0,0,.791,9.307a46.871,46.871,0,0,0-.783,8.708A46.87,46.87,0,0,0,.791,26.69a4.511,4.511,0,0,0,3.132,3.132c2.8.753,14.094.753,14.094.753s11.259,0,14.094-.753a4.511,4.511,0,0,0,3.132-3.132,46.871,46.871,0,0,0,.75-8.675,46.87,46.87,0,0,0-.75-8.708ZM14.413,23.4V12.612l9.4,5.4Z" transform="translate(-0.007 -5.424)"/></svg>